<svg id="ad0cf397-9ce9-4ac5-a1bc-40937eaee5fc" data-name="Capa 1" xmlns="http://www.w3.org/2000/svg" viewBox="0 0 1287.95 715.54"><defs><style>.\33 2d7a51a-62fb-4dae-83d6-c49acad4c9e0{fill:#111;}</style></defs><title>Logo</title><path class="32d7a51a-62fb-4dae-83d6-c49acad4c9e0" d="M533.12,277.64c-7,11.32-1.74,22.65-2.61,34s-6.1,21.78-3.48,33.1q1.31,5.22-2.62,10.45c-1.74,2.62-3.48,5.23-2.61,7.84,4.35,11.33,0,20-4.36,29.62-3.48,6.1-.87,13.07-3.48,19.16-5.22,18.3-11.32,36.59-16.55,54.88-5.22,17.42-14.81,33.1-18.29,50.53a6.67,6.67,0,0,1-1.74,4.36c-14.81,19.16-20.91,42.69-35.72,61.85-8.71,10.45-16.55,22.65-24.39,34-9.58,13.94-20,27.88-32.23,37.46-13.07,11.32-22.65,27-40.07,33.1-7,2.62-13.07,9.58-20,14.81-14.81,10.45-33.1,14.81-48.78,22.65-7.84,4.36-16.55,7-25.26,5.22a7.48,7.48,0,0,0-6.1,0c-12.19,8.72-25.26,2.62-38.33,2.62-12.19,0-25.26.87-36.59-7-5.22-4.35-12.19-1.74-19.16-4.35C124.56,709.72,101,694,83.62,671.39c-7-9.58-10.45-21.78-16.55-32.23-15.68-24.4-17.42-52.27-20-85.37-2.61-8.71,1.74-23.52-.87-37.45-1.74-9.58,2.61-20,2.61-29.62,1.74-29.62,10.45-57.49,13.94-87.12.87-3.48,2.61-6.09,4.35-9.58,1.74-5.22,4.35-10.45,5.23-15.67a36.59,36.59,0,0,1,6.1-20.91c3.49-7.84,6.1-17.42-.87-27.87-7.84-11.32-14.81-25.26-18.29-38.33-5.22-21.78-8.71-43.56,0-65.34,3.49-8.72,4.36-17.42,7.84-26.14,3.48-10.45,9.58-19.16,14.81-27.87,12.19-21.78,32.23-35.72,46.17-55.75,19.16-8.72,28.75-30.49,49.65-36.59l5.22-2.62C196.87,59.85,213.42,52,231.71,46.79c4.35-1.74,7.84-6.1,12.19-7.84,32.23-12.2,65.34-19.16,99.31-19.16,26.13,0,51.39,4.36,74.92,16.55,8.71,3.49,16.55,8.72,25.26,10.46a18.92,18.92,0,0,1,7,4.36C473,72.92,493.05,97.32,507,126.06c12.2,23.51,10.45,48.78,20.91,71.43-3.49,19.16,6.1,37.45,2.61,56.62-.87,5.22,0,11.32,1.74,16.55C533.12,273.28,534,276.76,533.12,277.64Zm-464.32,216-2.61-2.61c-.87-1.74-.87-2.62-3.48-.87.87.87,1.74.87,2.61,2.62S66.19,495.43,68.81,493.68Zm3.49-7.83c4.35-.87,7.84,1.74,13.07-2.62-5.23.87-7.84-2.62-10.45-5.22v-4.36c1.74,0,3.48-.87,1.74-2.62-.87.87-.87,1.74-2.61,2.62H69.68c0,1.74-3.48,2.61-3.48,5.22,1.74.87,3.48.87,5.22,1.74A11,11,0,0,1,72.29,485.84Zm0,105.41c-.87-.87-.87-.87-1.75-.87a2.69,2.69,0,0,0-1.74.87l.87.87C70.55,592.12,71.42,591.25,72.29,591.25Zm-1.75-17.42a.85.85,0,0,0,.87-.87c0-.87-.87-.87-.87-1.74a.86.86,0,0,0-.87.87C69.68,573,69.68,573.83,70.55,573.83Zm19.16,22.65c-1.74-1.74-4.35-.87-7-.87-.87.87-2.62,1.75-3.49,2.62l-2.61-2.62c-2.61,3.49-3.48,6.1,0,8.72C81.88,602.57,87.1,601.7,89.71,596.47Zm-11.32-365c-.87-.87-1.74-.87-2.61-1.74a3,3,0,0,0-.87,1.74c.87,0,1.74,0,1.74.87C77.52,231.47,77.52,231.47,78.39,231.47Zm-.87-21.78a7.86,7.86,0,0,1,.87,4.36,8.93,8.93,0,0,0,5.23-4.36C81.88,207.08,80.13,207.08,77.52,209.69Zm3.49,358c0,2.62,0,4.36,2.61,2.62L81,567.73c0-1.74.87-4.36-1.75-5.22C77.52,566,77.52,566,81,567.73Zm1.74-323.19c2.61,0,4.35.87,7-.87-.87-2.61-2.61-3.48-4.35-5.22-1.74.87-4.35-.87-7,.87C79.26,241.92,81,242.79,82.75,244.53Zm-3.49,311a3,3,0,0,1,1.75-.87c0-.87-.87-.87-.87-1.74-.87.87-1.74.87-1.74,1.74A.85.85,0,0,0,79.26,555.53Zm7.84-270c0,1.74,0,3.48.87,4.35,7,.87,7,.87,8.71-.87v-2.62c-5.22-1.74-9.58-7.84-15.68-3.48C82.75,283.74,85.36,284.61,87.1,285.48ZM81,423.12c5.22.87,8.71,7.84,17.42,1.74-7,1.74-8.71-3.48-12.19-6.1A4.19,4.19,0,0,0,81,420.51Zm2.61,189V607.8a3,3,0,0,0-1.74.87c-.87.87-.87,2.61-.87,3.48a.85.85,0,0,0,.87.87C82.75,613,83.62,613,83.62,612.16Zm-1.74-21.78c0,.87,0,1.74.87,1.74H87.1a2.69,2.69,0,0,1-.87-1.74c-.87-.87-2.61-.87-3.48-.87A.85.85,0,0,0,81.88,590.38ZM96.68,454.48c-2.61-2.62-3.48-4.36-5.22-5.22-1.75,0-4.36-.87-7,.87-.87,2.62-1.74,5.22.87,7.84h6.1C93.2,457.09,94.94,455.35,96.68,454.48ZM84.49,387.4a49.12,49.12,0,0,1,6.1-3.48c-.87-2.62-.87-3.49-1.75-5.23-1.74,0-2.61.87-4.35.87C84.49,383,82.75,385.66,84.49,387.4Zm.87-84.5c-1.74,4.35-1.74,4.35,1.74,6.1C86.23,307.25,88.84,303.77,85.36,302.9Zm5.23-4.36c-2.62-2.62-4.36-2.62-6.1,0C86.23,300.29,88,300.29,90.59,298.55ZM85.36,437.06c.87-.87.87-.87,1.74-.87-.87-.87-.87-1.74-1.74-2.61,0,.87-.87.87-.87,1.74A3,3,0,0,1,85.36,437.06Zm7.84-122v6.1c2.61,0,4.35-.87,6.1-.87-1.75-2.62-3.49-5.23-6.1-5.23V309H87.1v6.09Zm2.61,246.53c0-3.48,1.74-6.1-.87-8.71a22.88,22.88,0,0,1-5.23,4.35c.87,2.62.87,3.49,1.75,5.23A7.82,7.82,0,0,1,95.81,561.63ZM93.2,276.76c.87,0,1.74.87,2.61,1.74.87,1.74.87,3.49,3.49,1.74l-2.62-2.61C95.81,275.9,95.81,275,93.2,276.76Zm0,155.93c0,.87,0,2.62.87,3.48a12.13,12.13,0,0,0,2.61,3.49,4.53,4.53,0,0,0,1.74,3.48c1.75,0,2.62-.87,4.36-1.74a6.8,6.8,0,0,1-3.48-3.49c1.74-.87,3.48-2.61,3.48-3.48,3.48-1.74,6.1.87,8.71-1.74,0-1.74-.87-3.48-.87-5.22h-7a6.78,6.78,0,0,1-3.48,3.48C94.94,431,94.94,431,93.2,432.7ZM94.07,532l-.87.87a2.69,2.69,0,0,0,1.74.87c.87,0,.87,0,1.74-.87C95.81,532.88,94.94,532,94.07,532Zm7.84,128.92c-1.74-1.74-3.49-1.74-6.1,0C98.43,663.55,101,664.43,101.91,660.93ZM97.55,299.41c.87,0,.87,0,1.75-.87l-1.75-1.74-.87.87A3,3,0,0,0,97.55,299.41Zm-.87,281.38v1.74a7.83,7.83,0,0,0,4.36.87l.87-.87a3.06,3.06,0,0,0-.87-1.74C99.3,579.93,98.43,580.79,96.68,580.79Zm13.07,21.78c-.87,5.22-1.75,7.84-1.75,10.45-3.48,2.62-8.71-.87-11.32,1.74,0,4.36,6.1,0,6.1,5.23-2.61,0-4.36,0-2.61,2.61l2.61-2.61c2.61-1.74,6.1-2.62,8.71-4.36C111.49,612.16,112.37,608.67,109.75,602.57ZM484.34,283.74a24.11,24.11,0,0,1,.87-7.84c5.23-10.46,1.74-20.91,0-31.36-.87-14.81-4.35-30.49-7.84-45.3-6.1-24.4-13.07-47.91-26.13-69.69-19.16-31.36-46.17-53.14-81-64.47-13.07-4.35-27-7-40.95-8.71-20.91-3.48-40.94,0-61,2.62-26.13,3.48-47.91,17.42-71.43,27a7.85,7.85,0,0,0-5.23,5.22c-1.74,2.61-3.48,5.22-7,6.1-8.71,1.74-13.94,9.58-20,14.81-23.52,19.16-39.2,44.43-55.75,68.82-4.36,6.1-.87,13.07-4.36,19.16-1.74,3.48-2.61,7-4.35,9.58-.87,3.48-2.62,6.1-2.62,8.72-.87,22.65.87,45.3,13.07,65.34,9.58-7,10.45-18.3,15.68-27s17.42-13.94,15.68-26.14a4.78,4.78,0,0,1,2.61-4.35c7-2.62,8.71-10.46,13.07-14.81C168.12,200.11,176,187,187.28,176.58c11.32-8.71,17.42-23.51,33.1-27.87a6.63,6.63,0,0,0,1.74-3.48c.87-6.1,4.35-9.58,10.45-9.58,4.35-.87,6.1-3.49,7.84-6.1,1.74-3.48,3.48-6.1,7-6.1,9.58.87,14.81-5.22,21.78-9.58,3.48-2.62,7-6.1,12.19-6.1,8.71,0,17.42-3.48,27-4.36,10.45-1.74,21.78-2.61,33.1-.87,19.16,2.62,34.84,12.2,51.39,20,7,3.49,11.32,10.46,16.55,15.68,3.48,4.36,3.48,8.72.87,13.07-3.48,3.48-7.84,1.74-11.32,0a126.38,126.38,0,0,0-11.32-7.84c-20-13.94-40.95-14.81-62.72-3.49-10.45,5.23-16.55,17.42-29.62,16.56-.87,0-2.62,2.61-3.49,3.48-.87,7-5.22,9.58-11.32,13.07-6.1,4.36-15.68,10.46-18.29,17.42-5.23,13.07-18.29,19.16-25.26,31.36-3.48,6.1-7.84,13.94-13.07,20-13.07,14.81-20.91,32.24-30.49,49.66-7.84,13.07-13.07,27-19.16,40.07,18.29,11.32,39.2,11.32,58.37,12.19,14.81.87,28.75-4.35,43.56-4.35,4.35,0,7.84-2.62,11.32-4.36,3.48-2.62,7.84-5.22,12.19-6.1,7-2.62,13.94-8.71,20.91-.87,3.49,4.35-.87,15.67-7,21.77,0,.87-.87.87-.87,1.74-12.19,2.62-20,13.07-33.1,14.81-5.23.87-9.58,1.74-13.94,4.35a58.33,58.33,0,0,1-27,6.1c-8.71-.87-16.55,1.74-25.26,3.48-2.61,0-5.23,2.62-7,1.74-12.19-4.35-24.39-1.74-36.59-4.35-9.58-2.62-13.07-.87-13.07,7.84-1.74,16.55-7.84,32.23-7.84,48.78,0,13.94-9.58,27-3.49,40.95,0,1.74-.87,3.48-.87,4.36-3.48,17.42.87,34.85-4.35,51.39,7.84,14.81,3.48,32.23,7,47.91,1.74,9.58,9.58,19.16,5.22,30.49-.87.87.87,3.48,1.74,5.22,5.23,7.84,10.46,15.68,13.94,23.52,6.1,15.68,16.55,23.52,31.36,28.75,16.55,6.1,34,12.2,51.4,8.72s34-7.84,50.52-15.68c17.42-9.58,33.1-21.78,47.91-35.72,3.49-2.61,8.71-4.35,9.58-8.71,1.75-7,6.1-9.58,11.33-10.46,7.84-2.61,1.74-12.19,7.84-15.67,1.74-.87,2.61-1.75,4.35-1.75,3.48-1.74,5.23-5.22,6.1-8.71.87-2.62.87-6.1,3.48-7.84,11.32-8.71,14.81-22.65,21.78-34a171.56,171.56,0,0,0,11.33-21.78c7-17.42,20-34,20-54,0-4.36,2.61-6.1,5.22-7.84a7.58,7.58,0,0,0,5.23-7c-1.74-9.58,4.35-17.42,7-26.13,5.22-15.68,5.22-34,13.94-48.79a19.62,19.62,0,0,0,.87-12.2,14.56,14.56,0,0,1,.87-10.45C484.34,327.29,487,305.51,484.34,283.74Zm-385,90.6a7.84,7.84,0,0,0,.87,4.35h1.74v-4.35a.86.86,0,0,0-.87-.87Zm3.48,146.34c-.87,0-1.74-.87-2.61-.87l-.87.87a2.69,2.69,0,0,0,1.74.87C101.91,521.56,101.91,521.56,102.78,520.68ZM99.3,550.3a2.7,2.7,0,0,1,.87,1.74c.87.87,2.61.87,3.48.87a.86.86,0,0,0,.87-.87c0-.87,0-1.74-.87-1.74C102.78,549.43,101,550.3,99.3,550.3ZM101,590.38a2.69,2.69,0,0,0-1.74.87l.87.87c.87,0,1.74-.87,2.61-.87C101.91,590.38,101.91,590.38,101,590.38Zm0-232.59a.85.85,0,0,1,.87-.87c0-.87-.87-1.75-.87-2.62l-.87.87A3.2,3.2,0,0,0,101,357.78Zm7,291.83c-.87,0-1.74.87-2.61.87s-1.74.87-3.48,1.74c3.48,1.74,5.22.87,8.71,1.74,0-2.62,3.48-2.62,3.48-5.22-.87-.87-1.74-1.74-2.61-.87A6.66,6.66,0,0,0,108,649.61Zm-5.22-235.2.87.87c0-.87.87-.87,1.74-.87,0-.87-.87-1.74-.87-.87C103.65,413.53,102.78,413.53,102.78,414.41Zm1.74,38.33a3,3,0,0,0-1.74.87c0,.87,0,.87.87.87a2.69,2.69,0,0,0,1.74-.87Zm7-153.33v-6.09c-3.49,1.74-5.23,3.48-6.1,6.09-1.74.87-3.48.87-1.74,2.62.87,0,.87-.87,2.61-2.62Zm1.74,137.64c-3.48.87-.87,4.36-3.48,5.22A6.64,6.64,0,0,1,105.4,444c0,1.74,0,3.48.87,4.36,2.62-.87,5.23-2.62,8.71-3.48C114.11,442.28,115.85,439.67,113.24,437.06Zm.87,230.85c-.87-2.62-2.61-3.48-4.35-5.22h-2.62c-1.74,1.74-2.61,4.35,0,6.09C108.88,667.91,111.49,669.65,114.11,667.91Zm-3.48-272.66c0-.87-.87-.87-1.74-.87s-1.75.87-2.62.87c.87,2.61,2.62,5.22,3.49,7.84,2.61,0,5.22.87,7.84-.87C115.85,399.59,113.24,397.85,110.62,395.24ZM115,527.66v-5.23c2.61-1.74,2.61-1.74,1.74-6.09-3.48,1.74-1.74,4.35-1.74,6.09h-7a17,17,0,0,1,.87,6.1C111.49,528.52,113.24,527.66,115,527.66Zm-4.35-47.91h-1.74v4.35c0,.87,0,.87.87.87s1.74,0,1.74-.87A7.84,7.84,0,0,0,110.62,479.74ZM121.08,512a23.23,23.23,0,0,0-5.23-4.36L111.49,512C115,514.59,117.59,514.59,121.08,512Zm-3.49,84.5c-1.74-1.74-3.48-1.74-6.1.87C114.11,599.09,115.85,600,117.59,596.47ZM115,673.13c-.87,0-1.74-.87-2.61-.87l-.87.87a2.69,2.69,0,0,0,1.74.87C114.11,674,114.11,674,115,673.13Zm.87-361.52c.87-.87.87-.87,1.74-.87a3,3,0,0,0-.87-1.74c-.87.87-1.74.87-1.74,1.74Zm0,109.76c.87,0,.87,0,.87-.87s0-.87-.87-1.75l-.87.87A3,3,0,0,0,115.85,421.38ZM115,453.61a3.06,3.06,0,0,1,.87,1.74l.87-.87a3.21,3.21,0,0,0-.87-2.62C115.85,452.74,115,452.74,115,453.61Zm0,137.64a3,3,0,0,0,1.74.87.85.85,0,0,1,.87-.87,2.69,2.69,0,0,0-1.74-.87C115,590.38,115,590.38,115,591.25Zm0,11.32a3.06,3.06,0,0,0,.87,1.74c.87,0,.87,0,.87-.87s0-.87-.87-1.74Zm5.23,68.82,8.71-4.36a24.52,24.52,0,0,0-5.23-.87,63,63,0,0,1-7.84,4.35C119.34,671.39,121.08,671.39,120.21,671.39ZM116.72,471.9c.87,2.61,1.75,3.48,1.75,4.35h4.35a15.28,15.28,0,0,0,3.48-4.35c-.87-1.74-2.61-2.62-4.35-4.36C120.21,469.29,118.46,470.16,116.72,471.9Zm3.49-84.5c0-.87-.87-1.74-.87-2.62-.87.87-.87.87-.87,1.74a2.69,2.69,0,0,0,.87,1.74A.85.85,0,0,1,120.21,387.4Zm-.87,21.77c-.87.87-.87.87-.87,1.74a2.72,2.72,0,0,0,.87,1.75.85.85,0,0,1,.87-.87C120.21,410.92,119.34,410.05,119.34,409.18Zm0,88.86a3.06,3.06,0,0,1,.87-1.74c0-.87-.87-.87-.87-1.74a3.21,3.21,0,0,0-.87,2.62A.85.85,0,0,0,119.34,498Zm2.61,52.27c1.74-7,1.74-7,0-9.58A9.44,9.44,0,0,0,121.95,550.3Zm7.84,108c.87-2.62,6.1-3.48,1.74-7-3.48,1.75-8.71,2.62-10.45,7,1.74,4.36,7,3.48,9.58,6.1.87,1.74.87,1.74,1.74,0C134.14,661.81,131.53,660.07,129.79,658.33Zm0-353.68c-1.74-2.62-4.36-2.62-6.1,0A4.21,4.21,0,0,0,129.79,304.64Zm-5.23,135.89-.87.87a2.7,2.7,0,0,0,1.74.87c.87,0,.87,0,1.74-.87C126.3,441.41,125.43,440.54,124.56,440.54Zm2.61,41.81c.87-.87.87-2.61,2.62-4.35-1.74-2.62-4.36-.87-6.1-1.75v4.36a4.51,4.51,0,0,0,3.48,1.74v3.49a8.8,8.8,0,0,0-2.61.87c-.87,1.74.87,2.62,2.61,1.74a18.22,18.22,0,0,1-3.48,5.22v7c2.61,0,3.48,3.48,6.1,3.48,0,1.74.87,3.48,2.61,1.74l-2.61-2.62c0-1.74,0-4.35,1.74-6.09s1.74-2.62,0-4.36c0-1.74-.87-2.62-1.74-4.36,2.61.87,3.48-1.74,2.61-3.48a2.31,2.31,0,0,0-2.61-2.62C128.92,483.23,128,482.35,127.17,482.35Zm-3.48,145.49a.85.85,0,0,1,.87.87c.87,0,1.74-.87,2.61-.87-.87-.87-.87-.87-1.74-.87A2.69,2.69,0,0,0,123.69,627.84Zm8.71,51.39-2.61-2.62a42.29,42.29,0,0,0-6.1,2.62c0,3.48.87,5.22,4.36,4.36C129.79,681.85,131.53,681,132.4,679.23Zm7-43.55c1.74-.87,3.48-.87,1.74-3.49l-2.61,2.62c-4.36,0-7.84,3.48-11.33,5.22-.87,0-3.48.87-2.61,4.36h12.2c.87,0,1.74-.87,2.61-1.74ZM125.43,531.14a3.21,3.21,0,0,0-.87,2.62.85.85,0,0,0,.87.87,3.06,3.06,0,0,1,.87-1.74C126.3,532,125.43,532,125.43,531.14Zm1.74-108.89c-.87,0,.87,1.74.87,2.61h7a57.13,57.13,0,0,1,7-7.84c-3.48-1.74-6.1-3.48-10.45-5.22A53.39,53.39,0,0,0,127.17,422.25Zm1.75,182.93a3.05,3.05,0,0,0-1.75.87v4.36h1.75a7.86,7.86,0,0,0,.87-4.36Zm7.84-173.35c.87-.87.87-1.74,1.74-3.49-3.49-.87-6.1-1.74-8.71.87v3.48a18.78,18.78,0,0,0,4.35,3.48c.87.87.87,2.62,2.62,3.49-2.62.87-4.36.87-2.62,3.48a12.15,12.15,0,0,0,2.62-3.48h.87C142,437.06,136.76,434.44,136.76,431.83Zm-6.1-66.21c5.22.87,5.22.87,7.84-.87l-4.36-4.35C133.27,362.14,130.66,363,130.66,365.62Zm.87,37.46c-.87.87-.87.87-.87,1.74a2.7,2.7,0,0,0,.87,1.74.85.85,0,0,1,.87-.87C132.4,404.83,131.53,404,131.53,403.09Zm6.1-12.2c1.74-1.74,1.74-3.48,0-6.1a11,11,0,0,1-5.23.87C135,388.27,135.88,390,137.63,390.89ZM142,289.83l-4.35-8.71a9.45,9.45,0,0,1-4.36.87v7a10.51,10.51,0,0,0,4.36,4.36A15.4,15.4,0,0,1,142,289.83ZM137.63,370c-1.75.87-2.62,2.61-4.36,4.36,1.74,2.61,2.61,5.22,4.36,7.83C139.37,377.82,139.37,373.46,137.63,370Zm.87-20c.87-1.74,0-2.61,0-4.36h-1.74a9.47,9.47,0,0,0-.87,4.36l.87.87A3,3,0,0,0,138.5,349.94Zm-1.74,269.18a3.21,3.21,0,0,0,2.61-.87c-.87,0-.87-.87-1.74-.87a3,3,0,0,1-1.75.87A.85.85,0,0,0,136.76,619.12Zm6.1,39.2c-2.61-1.74-3.48-4.36-6.1-4.36-.87,1.74-1.75,3.48.87,6.1C138.5,659.19,140.24,659.19,142.85,658.33Zm-4.35-259.6c2.61,2.61,4.35,1.74,7,0-.87-.87-.87-2.62-.87-4.36C142,396.11,140.24,397,138.5,398.73Zm1.74,193.39c-1.74,2.62-1.74,4.36,0,6.1C142.85,596.47,142.85,594.73,140.24,592.12Zm3.48-237.82,4.36-4.36c-1.74-1.74-4.36-2.61-6.1,0C142,351.68,141.11,353.42,143.72,354.3ZM142,371.72c2.61,1.74,4.36,2.62,6.1-.87C146.34,369.11,144.6,369.11,142,371.72Zm14.81,321.45h7c0,.87,0,2.61.87,2.61,1.74,0,1.74-.87,1.74-2.61h-2.62v-7.84c-.87.87-1.74.87-1.74,1.74-.87-2.62-2.61-4.36-3.48-7-4.36,2.62-7,4.36-10.45,5.23v3.48C150.69,690.56,153.31,691.43,156.79,693.17Zm.87-367.62a7.86,7.86,0,0,1-.87-4.36c-2.62,0-4.36,0-5.23.87v3.48C153.31,328.17,155.05,328.17,157.67,325.55Zm6.1,326.68c-2.61-2.62-4.35-2.62-6.1,0C159.41,654,161.15,654,163.76,652.23Zm5.23,54c-1.74-1.74-3.48-1.74-6.1.87.87.87.87,2.62,1.75,7C165.51,709.72,169,708.85,169,706.24Zm18.29-16.56a9.46,9.46,0,0,1,.87-4.35,56.18,56.18,0,0,0-7.84-7c0-.87-.87,0-1.74-.87-1.74.87-4.35-1.74-5.23,2.61,1.75.87,3.49.87,5.23,2.62-2.61,1.74-4.35,4.36-7,7-1.74.87-3.48.87-6.1,1.75,2.61,2.61,4.35,3.48,6.1,5.22,1.74-.87,4.36.87,7-1.74a19.22,19.22,0,0,1,.87-7C182.93,685.33,183.8,688.82,187.28,689.68Zm-19.16-24.39a3,3,0,0,0,.87-1.74l-.87-.87a2.69,2.69,0,0,0-.87,1.74C167.25,665.29,167.25,665.29,168.12,665.29ZM169.86,289c1.74,2.62,3.48,2.62,6.1,0C173.34,287.22,171.6,287.22,169.86,289ZM177.7,710.6a49.65,49.65,0,0,0-3.48-6.1c-2.62,2.61-1.75,4.36,0,7C175.09,711.46,176.83,710.6,177.7,710.6Zm3.48-484.35c.87-1.75.87-3.49-.87-6.1-1.74,0-3.48.87-5.22.87C177.7,222.75,178.57,225.37,181.18,226.24Zm3.49,7.83v4.36h7.84c.87-1.74,3.48-2.61,4.35-6.1C192.51,233.21,189,231.47,184.67,234.08Zm1.74,22.66h11.32c.87,0,.87,0,1.74-.87v-3.48a10.53,10.53,0,0,0-4.35-4.36c-3.49,0-7-.87-9.58.87C184.67,251.5,183.8,254.12,186.41,256.73Zm1.74-34.85c1.74,2.61,2.61,5.22,4.36,7,1.74-1.74,3.48-2.61,4.35-3.48-.87-2.62.87-5.22-.87-7.84C193.38,219.27,190.77,220.14,188.15,221.89Zm2.61,451.25-.87-.87a3,3,0,0,0-1.74.87c0,.87,0,.87.87.87S189.9,674,190.77,673.13Zm0,21.78a.85.85,0,0,0-.87-.87c-.87,0-1.74,0-1.74.87a.85.85,0,0,0,.87.87C189.9,695.78,189.9,694.91,190.77,694.91Zm15.68-512.23c-2.61-2.61-5.23-1.74-7-1.74-2.61,1.74-4.35,2.62-6.1,4.36,1.74.87,2.61,1.74,3.48,1.74.87-.87,2.61-1.74,3.48-2.62a3.22,3.22,0,0,0,2.62-.87C203.84,183.56,204.71,182.68,206.45,182.68Zm-7.84,181.2a.85.85,0,0,1,.87-.87c0-.87-.87-1.74-.87-2.61l-.87.87A3.21,3.21,0,0,0,198.61,363.88Zm3.49-125.45c1.74-1.74,1.74-3.48-.87-5.22C201.22,235,197.74,237.57,202.09,238.43Zm0-42.69c0-.87.87-.87.87-1.74-.87,0-.87,0-1.75-.87a.85.85,0,0,0-.87.87C200.35,194.88,201.22,194.88,202.09,195.75Zm4.35,20c-2.61-1.74-5.23-2.62-6.1.87C202.09,217.53,203.84,217.53,206.45,215.79Zm.87,20c2.61-2.62,2.61-4.36,0-6.1C205.58,231.47,205.58,233.21,207.32,235.83Zm1.74,462.57c-.87-.87-.87-1.74-1.74-1.74a.85.85,0,0,0-.87.87,3.06,3.06,0,0,1,.87,1.74C208.19,699.26,208.19,698.4,209.06,698.4Zm1.75-331.9c.87,0,.87-.87,1.74-.87-.87-.87-1.74-.87-2.62-1.74,0,.87-.87.87-.87,1.74C209.93,365.62,210.81,365.62,210.81,366.5Zm15.68,351.07a50.25,50.25,0,0,1-3.48-6.1,12.91,12.91,0,0,0-5.23.87c.87,3.48-.87,5.22,1.74,7.84H223C224.74,718.44,225.61,717.56,226.48,717.56Zm-7-543.59c3.49-.87.87-3.48,1.75-5.23h4.35c.87-1.74,3.48-8.71,3.48-8.71h-7c-1.74,2.62-.87,6.1-.87,8.71C217.77,170.49,217.77,170.49,219.51,174ZM223,356.91c.87,0,.87-.87,1.74-.87-.87,0-1.74-.87-2.61-.87l-.87.87A3,3,0,0,1,223,356.91Zm10.45,345.84c-1.74-3.49-3.48-5.23-4.36-7-3.48.87-6.1-.87-7.84,2.62,0,.87,0,2.62.87,3.48,2.61,0,5.22.87,7,.87.87.87,2.62,1.74,3.49,2.61C233.45,703.62,233.45,701.88,233.45,702.76Zm-.87-504.39.87-.87c-.87,0-.87-.87-1.74-.87a.86.86,0,0,0-.87.87A3,3,0,0,0,232.58,198.36Zm7,157.68c-.87.87-1.75,2.62-3.49,3.48,1.74.87,3.49.87,4.36,1.74,1.74-1.74,3.48-2.61,5.22-4.35,1.74,1.74,3.49,2.61,4.36,3.48a12,12,0,0,0,3.48-2.62l3.48,3.48a12.88,12.88,0,0,0,.87-5.22c2.61-1.74,3.48-5.22,7.84-4.36l2.62,2.62c2.61-1.74,2.61-3.48,0-6.1h-8.71a15.23,15.23,0,0,1-4.36,3.48c-2.61-.87-4.35-2.61-7-3.48a19.15,19.15,0,0,0-4.36,3.48c-3.48.87-7.84-1.74-10.45,1.74C235.19,354.3,237.81,355.17,239.55,356Zm-1.75-211.69a31,31,0,0,0-3.48,7.84c.87,1.74,2.61,4.36,3.48,7,1.75-1.74,3.49-2.61,4.36-4.35.87-3.48-1.74-4.36-2.61-6.1S240.42,144.35,237.81,144.35Zm7.84,565.37c-4.35-.87-4.35-1.74-6.1,1.74-1.75,0-3.49,0-1.75,2.62.87-.87.87-1.74,2.62-2.62C242.17,711.46,244.78,712.34,245.65,709.72Zm-4.35-541c-.87,0-.87.87-.87,1.75a.85.85,0,0,0,.87.87c0-.87.87-.87.87-1.74Zm0,520.94a3,3,0,0,0,.87-1.74l-.87-.87a2.69,2.69,0,0,0-.87,1.74C240.42,689.68,240.42,689.68,241.29,689.68ZM243.91,147l1.74-1.74-.87-.87a2.69,2.69,0,0,1-1.74.87C243,146.09,243,146.09,243.91,147Zm6.1,0,1.74-1.74-.87-.87a2.69,2.69,0,0,1-1.74.87C249.14,146.09,249.14,146.09,250,147Zm1.74,553.17c-.87,0-.87-.87-1.74-.87a3.06,3.06,0,0,1-.87,1.75c0,.87.87.87.87,1.74C250.88,701.88,250.88,701,251.75,700.14Zm8.71,13.07c-1.74-2.61-2.61-5.22-4.36-7.84-.87,0-2.61,0-3.48.87-.87,2.62-1.74,6.1.87,8.71C256.1,714.08,257.85,715.82,260.46,713.2Zm3.48-14.81c-1.74-1.74-2.61-3.48-4.35-6.1-2.62,2.62-1.74,4.36,0,7C260.46,699.26,262.2,698.4,263.94,698.4Zm9.58,8.71c-.87-.87-.87-.87-1.74-.87a2.7,2.7,0,0,0-1.74.87l.87.87C271.78,708,272.65,707.11,273.52,707.11ZM281.37,147c1.74-1.74,1.74-3.48-.87-6.1-.87,0-2.61.87-5.23.87C277.88,143.49,278.75,146.09,281.37,147Zm10.45,550.55c0-4.35-2.61-5.22-4.35-7-1.74-.87-1.74-3.48-5.23-2.62v11.32c0,.87.87,1.75.87,2.62a11.63,11.63,0,0,1,4.36.87C288.34,699.26,291.82,699.26,291.82,697.52Zm7.84-20.91a2.7,2.7,0,0,0-.87-1.74.86.86,0,0,1-.87.87,2.69,2.69,0,0,1,.87,1.74C299.66,677.49,300.53,677.49,299.66,676.62Zm0,20.91c.87-.87,0-.87-.87-.87a2.7,2.7,0,0,1-.87,1.74.85.85,0,0,1,.87.87A2.69,2.69,0,0,0,299.66,697.52Zm5.23-358.91c.87,0,.87-.87,1.74-.87l-.87-.87a3,3,0,0,0-1.74.87A.85.85,0,0,0,304.89,338.62Zm5.22,346.72c-.87,0-1.74-.87-2.61-.87a.86.86,0,0,1-.87.87,2.7,2.7,0,0,0,1.74.87C309.24,686.2,309.24,686.2,310.11,685.33Zm12.2-568.85v4.35l-3.49,3.49c0,1.74.87,2.61.87,4.35a35.22,35.22,0,0,1,7.84-4.35c-1.74-2.62-2.61-5.23-5.22-10.46v1.74c-3.49-1.74-6.1-3.48-11.33-6.1,2.62,4.36,0,7.84,3.49,10.46a12,12,0,0,1,2.61-3.48Zm-.87,573.2a27.28,27.28,0,0,0-4.35-8.71c-.87,0-2.61,0-3.48.87.87,2.61,2.61,5.22,3.48,8.71A9.43,9.43,0,0,1,321.44,689.68Zm12.2-34c0-.87-.87-1.74-.87-2.61-.87.87-.87.87-.87,1.74a2.7,2.7,0,0,0,.87,1.74Zm6.1,9.58v-1.74c-.87-.87-2.61-.87-4.35-.87l-.87.87c.87.87.87,1.74,1.74,1.74Zm3.49-7c-.87-.87-.87-.87-1.74-.87a.86.86,0,0,0-.87.87,3.06,3.06,0,0,0,1.75.87Zm17.42,0a2.69,2.69,0,0,0-.87-1.74l-.87.87a3,3,0,0,0,.87,1.74C360.64,659.19,361.51,659.19,360.64,658.33ZM373.71,640c-.87,0-.87-.87-1.74-1.74a.86.86,0,0,1-.87.87,2.69,2.69,0,0,1,.87,1.74C372.84,640.9,373.71,640.9,373.71,640ZM384.16,52.89c2.61-2.62,3.49-4.36,0-6.1C382.42,48.53,382.42,50.27,384.16,52.89Zm16.55,561.88c-1.74-1.74-3.48-1.74-6.1.87C398.1,617.38,399.84,618.26,400.71,614.76Zm.87-554c1.74.87,2.61,2.61,4.35,4.35,1.75,0,2.62-.87,4.36-.87-1.74-3.48-2.61-6.1-4.36-8.72-1.74,0-2.61.87-4.35.87Zm14.81,11.32c.87.87,1.74.87,2.61,1.74a2.69,2.69,0,0,1,.87-1.74,3.19,3.19,0,0,1-2.61-.87C417.26,72.05,417.26,72.05,416.39,72.05Zm6.1-9.58a19.56,19.56,0,0,1,6.1-.87c-.87-3.48-3.48-4.36-5.23-7C423.36,57.24,422.49,59,422.49,62.47Zm7.84,11.32c1.74-1.74,1.74-3.48,0-6.1C427.72,70.31,427.72,72.05,430.33,73.79Zm0,463.45a3.06,3.06,0,0,0,.87-1.74l-.87-.87c0,.87-.87.87-.87,1.74A.85.85,0,0,0,430.33,537.24ZM433.82,559c-1.75,0-3.49,0-4.36.87.87,1.74,2.61,3.48,3.48,6.1C435.56,562.5,435.56,561.63,433.82,559ZM439,55.49a37.85,37.85,0,0,1-7.84,4.36c.87,2.62.87,3.48,1.74,5.22,3.49-.87,7,.87,10.46-.87,0-4.36-4.36-.87-5.23-3.48.87-1.74,1.74-2.62,2.61-4.36A3,3,0,0,1,439,55.49Zm7,25.26a21.76,21.76,0,0,0-7-.87c-1.74-.87-1.74-3.49-4.35-1.74v7c3.48,2.62,5.22,6.1,9.58,7,4.35-.87,2.61-6.09,6.1-7.84A18.78,18.78,0,0,1,446,80.76Zm-2.61,434.7c0-.87-.87-1.74-.87-2.62,0,.87-.87.87-.87,1.75a3,3,0,0,1,.87,1.74Zm.87-418.14c1.74,1.74,3.48,1.74,6.1-.87C447.75,94.7,446,93.82,444.27,97.32ZM446.88,505c-.87,0-.87-.87-1.74-.87,0,.87,0,.87-.87,1.74a.85.85,0,0,0,.87.87C446,506.75,446,505.88,446.88,505Zm2.61,25.26c0-.87-.87-.87-.87-1.74l-.87.87a3.06,3.06,0,0,0,.87,1.74A.85.85,0,0,0,449.49,530.26ZM453,90.34c2.61,2.62,4.35,2.62,6.1,0C457.34,88.6,455.59,88.6,453,90.34Zm6.1,403.34c0-.87-.87-1.74-.87-.87-.87,0-1.74,0-1.74.87v3.49h2.61Zm0,27.88c-.87-.87-.87-1.74-1.74-2.62,0,.87-.87.87-.87,1.74.87,0,.87.87.87,1.74A3,3,0,0,0,459.08,521.56Zm8.71-419.89c-3.48,1.74-6.1,2.62-8.71,4.36,0,1.74.87,2.62.87,4.36h4.36l4.35-4.36C468.66,104.28,467.79,103.41,467.79,101.67Zm5.23,6.1c-1.74,1.74-3.49,2.62-4.36,4.36l4.36,4.36c1.74-.87,2.61-2.62,4.35-4.36Zm-1.74,385.91-1.75-1.74-.87.87a2.69,2.69,0,0,1,.87,1.74C470.4,494.55,470.4,494.55,471.28,493.68Zm9.58-30.49c-3.49-2.61-6.1-2.61-9.58,0C474.76,465.8,477.37,465.8,480.86,463.19Zm-6.1,18.3c-.87-.87-.87-1.74-.87-.87a3.19,3.19,0,0,0-2.61.87.85.85,0,0,1,.87.87C473,482.35,473.89,481.49,474.76,481.49Zm8.71-58.37c-2.61-1.74-4.36-2.61-5.23.87C480,425.73,481.73,424.86,483.47,423.12Zm-2.61-292.7c1.74,2.62,2.61,5.23,4.35,7.84h3.48c2.62-5.22-2.61-8.71-3.48-12.19C483.47,126.93,482.6,128.67,480.86,130.41Zm3.48-19.16c0,.87.87,1.74.87,2.62,0-.87.87-.87.87-1.74a3.06,3.06,0,0,1-.87-1.74A.85.85,0,0,1,484.34,111.25Zm17.42,293.58a12,12,0,0,1-2.61-3.49v-6.09a17,17,0,0,0-13.07,0c2.61,2.61,5.23,4.35,6.1,6.09a9.51,9.51,0,0,1,.87,4.36C496.54,406.57,500,407.43,501.76,404.83Zm-6.1,29.61c-2.61-.87-5.22,0-7-2.61,0-.87-.87-.87-1.74,0,0,2.61-1.74,6.09,1.74,7.84h2.62C492.18,437.92,495.66,437.92,495.66,434.44Zm-7.84-259.6-.87.87c.87.87.87.87.87,1.74.87,0,.87-.87,1.75-.87C488.69,175.72,488.69,174.84,487.82,174.84Zm0,231.73c.87-.87.87-.87,1.75-.87-.87-.87-.87-1.74-1.75-2.61,0,.87-.87.87-.87,1.74C487.82,404.83,487.82,405.69,487.82,406.57Zm1.75-279.64a3,3,0,0,0,.87,1.74c.87-.87,2.61-.87,2.61-1.74s-.87-2.61-.87-3.48h-1.74C490.44,124.32,489.57,126.06,489.57,126.93Zm3.48,220.4c1.74,1.74,3.48,1.74,6.1,0C496.54,344.72,494.79,344.72,493.05,347.33Zm2.61-186.42a3,3,0,0,1,1.74.87c.87,0,.87-.87,1.75-.87-.87,0-1.75-.87-2.62-.87A.86.86,0,0,1,495.66,160.91Zm9.58,111.51h-6.1v6.09c2.61,0,4.35-.87,6.1-.87v-5.22c1.74-.87,4.36.87,5.23-1.75C507.86,268.92,507,268.92,505.25,272.41Zm-6.1,20c.87.87.87.87,1.74.87h17.42c.87,0,.87-.87,1.74-1.74-.87-.87-.87-.87-1.74-.87H500A2.69,2.69,0,0,1,499.15,292.45ZM503.51,248c1.74-2.61,1.74-4.36,0-6.1C500.89,243.66,500.89,245.41,503.51,248Zm4.35,138.51c-1.74-1.74-3.48-1.74-6.1,0C504.38,389.14,506.12,389.14,507.86,386.53ZM505.25,212.3c1.74,1.74,2.61,4.36,6.1,4.36-.87-2.62.87-5.23-1.74-8.72-1.75,0-2.62.87-4.36.87Zm5.23,162.9v-1.74c-.87,0-2.62-.87-4.36-.87a3.06,3.06,0,0,0-.87,1.75c.87,0,.87,1.74,1.74,1.74S509.61,375.2,510.48,375.2Zm-2.62-211.69c.87.87,1.75.87,1.75,1.74l1.74-1.74a3.21,3.21,0,0,1-2.61-.87A.85.85,0,0,1,507.86,163.52Zm0,6.1a2.7,2.7,0,0,1,.87,1.74c.87-.87,1.74-.87,2.61-1.74-.87,0-.87,0-1.74-.87C509.61,169.62,508.73,169.62,507.86,169.62Zm0,12.2a2.68,2.68,0,0,1,.87,1.74c.87-.87,1.74-.87,2.61-1.74-.87,0-.87,0-1.74-.87C509.61,181.82,508.73,181.82,507.86,181.82Zm10.46,117.6c-.87.87-2.62.87-3.49.87-.87,1.74-.87,1.74,0,2.62-2.61,0-4.35,0-2.61,2.61l2.61-2.61c.87,0,1.74,0,1.74.87a12.38,12.38,0,0,1,1.75,5.23l.87-.87C520.06,305.51,520.93,302.9,518.32,299.41Zm1.74-23.51V260.22c0-.87-.87-1.74-1.74-5.22C516.57,271.54,516.57,271.54,520.06,275.9Zm-2.62-23.52.87.87c.87,0,.87-.87,1.74-.87l-.87-.87A3.05,3.05,0,0,0,517.44,252.38Z" transform="translate(-45.75 -19.78)"/><path class="32d7a51a-62fb-4dae-83d6-c49acad4c9e0" d="M854.55,424c-7,0-14.81,5.22-22.65,3.48-3.48-.87-4.36,1.74-5.23,4.36-8.71,20.91-24.39,36.59-40.94,52.26-10.45,10.46-24.39,16.56-36.59,23.52-6.1,4.36-13.07,7-20,4.36-2.61,0-4.36-.87-6.1.87-6.1,5.23-11.32,1.75-17.42,0-7-1.74-9.58-6.09-12.19-12.19-2.61-5.22-6.1-10.46-8.71-16.56-4.35-9.58-.87-18.29,5.23-26.13,11.32-12.2,25.26-20.91,37.46-30.49,5.22-4.36,12.19-6.1,18.29-7.84,9.58-3.48,17.42-9.58,28.75-9.58,9.58.87,15.68-7.84,16.55-18.3,0-4.35.87-7.83,4.35-10.45a4.8,4.8,0,0,0,2.61-4.36c0-12.2,7-23.52,7-35.71,0-5.23,0-10.46-.87-14.81-.87-5.22-1.74-10.45-7-12.19-5.22-.87-11.32,0-14.81,4.36-3.49,3.48-6.1,5.22-10.46,5.22-.87,0-2.61,0-3.48.87-8.71,10.46-22.65,15.68-32.23,26.14C725.62,363,714.3,375.2,704.72,388.27c-6.1,8.72-13.07,17.42-18.29,26.14-6.1,10.45-9.58,21.77-19.16,29.61a.85.85,0,0,0-.87.87c.87,16.55-13.07,26.13-17.42,40.95-3.48,13.07-11.32,25.26-14.81,38.33-3.49,11.32-9.58,21.77-10.45,33.1-1.75,10.46-5.23,19.16-7,29.62-.87,5.22-3.49,10.46-2.62,16.55,0,.87.87,1.74,0,2.62-8.71,12.2-3.48,27-9.58,40.07-4.35,7-3.48,16.56-4.35,25.26-1.74,12.2-7.84,22.65-9.58,35.71-.87,5.23-6.1,10.46-10.45,15.68-2.61,2.62-7,4.36-10.45,2.62-6.1-2.62-13.94-3.48-20-5.22-15.68-6.1-25.26-16.56-27-34-.87-10.45,0-20.91-5.23-30.49,4.36-13.07.87-27,2.61-40.07,1.75-27.88,7.84-54.88,12.2-81.88a72.66,72.66,0,0,1,3.48-13.07c.87-1.74,1.74-2.61,1.74-4.35,0-20,7.84-37.46,12.2-56.63,5.22-27.87,13.94-54.88,23.52-81.88,5.23-18.3,13.07-35.72,20.91-53.14,3.49-7,7.84-13.07,10.45-19.16,3.49-6.1,11.33-10.45,18.29-13.93,5.23-1.75,11.33.87,15.68,6.09a52.64,52.64,0,0,1,5.23,16.56,131.88,131.88,0,0,1,0,45.3c-2.62,14.81-4.36,29.62-10.45,43.56a9.5,9.5,0,0,0,0,7,14.84,14.84,0,0,1,0,8.71c-7.84,17.42-6.1,36.59-10.46,54,0,.87,0,1.74,1.75,2.62a4.29,4.29,0,0,1,2.61-.87c9.58-28.75,27-52.26,44.43-75.78,7.84-11.32,16.55-20.91,25.26-31.36a257.41,257.41,0,0,1,34.85-34c9.58-7,19.16-14.81,27.88-21.78,13.94-12.2,29.62-18.29,46.17-21.78,11.32-2.61,21.78-.87,30.49,11.33,6.1,9.58,7.84,18.29,10.46,28.75,1.74,14.81-.87,29.61.87,44.43a9.15,9.15,0,0,1-1.75,4.35c-5.22,7.84-4.35,17.42-5.22,27,8.71-4.36,17.42-3.48,25.26-4.36,12.19-.87,23.52-7.83,35.71-7.83,2.62,0,3.49-1.75,4.36-3.49,1.74-1.74,2.61-4.35,5.22-4.35,15.68,0,26.13-11.32,37.46-20.91,3.49-3.48,7-7,11.33-9.58,3.48-3.48,7.84-2.61,12.19,0,3.48,1.75,3.48,5.23,2.61,9.58-2.61,6.1-3.48,11.33-10.45,14.81-5.22,2.61-10.45,7.84-14.81,12.19-13.94,12.2-30.49,18.3-47.92,23.52C886.79,419.63,871.1,425.73,854.55,424ZM534.85,679.23a.85.85,0,0,1-.87-.87l-1.74,1.74V681C533.1,680.1,534,680.1,534.85,679.23Zm7.84-118.47c2.61-.87,5.22-2.62,8.71-3.49a47,47,0,0,1-11.32-6.09,32.51,32.51,0,0,0-.87,8.71,6.58,6.58,0,0,0,3.49.87l.87.87Zm8.71,81h0Zm7-96.69c0-.87-.87-1.74-1.74-2.62-3.48.87-6.1,2.62-4.35,7.84C556.62,551.18,558.36,548.56,558.36,545.08ZM562.72,471c-.87-3.48-4.36-3.48-7.84-3.48C557.49,473.64,557.49,473.64,562.72,471Zm-.87,200.36c-3.49,0-5.23.87-5.23,6.1,2.62-.87,3.49-.87,4.36-1.74C561.85,674,563.59,673.13,561.85,671.39Zm-2.61-143.74c0-.87,0-.87.87-.87l-.87-.87c-.87,0-.87,0-.87.87A.86.86,0,0,1,559.24,527.66Zm5.22,40.07a3.19,3.19,0,0,0,2.61-.87,3.21,3.21,0,0,1-2.61-.87Zm7.84,54c-1.74-2.62-3.48-.87-6.1-.87V620h-.87a.85.85,0,0,0,.87.87c0,.87.87,1.74.87,2.62C568.82,622.61,571.43,623.48,572.3,621.74Zm29.62-31.36c-.87-1.74-.87-2.62-1.74-4.36l.87-.87-.87.87a59.75,59.75,0,0,1-7,2.62h-.87a15.3,15.3,0,0,0-3.48-4.36c-3.49.87-7,1.74-11.32,2.62-.87,1.74-.87,3.48-1.75,6.1H581c-.87,1.74-.87,4.36-1.74,7h5.22a51.11,51.11,0,0,1-3.48-7c0-1.74.87-2.62.87-4.36.87,0,.87-.87,1.74-.87.87,1.75,2.62,4.36,3.49,7,1.74-1.74,2.61-2.62,2.61-3.48,0-2.62,1.74-2.62,2.61-2.62h.87C595,592.12,598.44,591.25,601.92,590.38Zm-22.65,20.91-.87-.87h-.87l.87.87Zm0-216v.87a.85.85,0,0,0,.87-.87l-.87-.87Zm.87,39.2c0,1.74-.87,2.62-.87,3.48l1.74,1.75,3.48-3.49C582.76,435.32,581.89,435.32,580.14,434.44Zm0,169.87h0Zm5.22-148.09h-3.48v.87h3.48Zm-.87,117.6v.87h.87Zm8.71-147.23a.85.85,0,0,1,.87-.87v-.87h-.87Zm.87-67.94h2.62v-.87h-2.62Zm1.75,75.78a.85.85,0,0,0-.87-.87.87.87,0,1,0,.87.87Zm0,104.54v1.74l.87-.87V539Zm.87,40.95c0-.87.87-.87.87-1.75C597.57,579.05,596.7,579.05,596.7,579.93Zm6.1-144.61h-.87c0,.87-.87,1.74-.87,2.61h.87A3.19,3.19,0,0,1,602.79,435.32ZM611.5,397a42.42,42.42,0,0,0-6.1-2.62,49.83,49.83,0,0,0-3.49,6.1.85.85,0,0,0,.87.87C605.41,400.47,608,398.73,611.5,397Zm-8.71-55.75V343c.87,1.74.87,4.36.87,6.1a7.83,7.83,0,0,0,4.36-.87,7.83,7.83,0,0,0-5.23-5.22Zm7,119.35c-1.74-.87-3.48-.87-4.35,0v-1.74c-1.75,1.74-2.62,2.61-.87,3.48h-.87C607.15,464.06,608.89,464.06,609.76,460.58Zm-3.48-95h0Zm.87,181.2v-.87a.86.86,0,0,1-.87.87Zm0,10.45v0Zm17.42-233.46v0ZM757,444c-16.55,2.62-28.75,12.2-40.07,26.14C732.59,469.29,751.76,457.09,757,444Zm7,36.59a2.71,2.71,0,0,0-1.75-.87v.87Zm6.1-24.39h-.87c-.87.87-1.74.87,0,1.74v-1.74Zm43.56-53.14c-.87,0-.87,0-1.74-.87V404C812.74,404,812.74,403.09,813.61,403.09Zm8.71-97.57v6.1C825.8,309,825.8,307.25,822.32,305.51Zm7.84,74.92c-4.36-3.48-4.36-3.48-6.1,0ZM831,316a12.14,12.14,0,0,1-3.49,2.62,6.63,6.63,0,0,0,3.49.87Z" transform="translate(-45.75 -19.78)"/><path class="32d7a51a-62fb-4dae-83d6-c49acad4c9e0" d="M903.32,438.8a9.54,9.54,0,0,0,0-7c-1.74-6.1-1.74-10.46,4.36-13.94a6.63,6.63,0,0,0,1.74-3.48c1.74-14.81,11.32-26.14,16.55-40.07,3.48-7,7-13.94,13.07-19.17,2.61-2.61,5.23-5.22,7-8.71a33.86,33.86,0,0,1,15.68-19.16,10.51,10.51,0,0,0,4.36-4.36c7.84-17.42,25.26-27.87,38.33-40.07,15.68-13.94,34.85-27,57.49-31.36,25.26-5.22,49.66-3.48,67.08,20,3.49,4.36,7.84,7.84,12.2,12.2,9.58-9.58,15.68-20,25.26-27,8.71-6.1,29.62-7.84,37.46-2.62,9.59,6.1,14.81,23.52,9.59,35.71-6.1,16.56-10.46,33.1-18.29,48.79-3.49,6.1-1.75,14.81-8.71,19.16a3.83,3.83,0,0,0-.87,4.36c1.74,7.84-2.62,13.94-5.23,20.91-12.19,36.59-22.65,74-23.52,113.25,0,12.2,0,24.39,7.84,35.72,12.2,16.55,30.49,19.16,47.91,8.71,13.94-7.84,20-21.78,30.49-32.23,10.45-11.32,14.81-25.26,22.65-37.46,10.45-14.81,15.68-34,24.39-50.52,7-13.07,11.32-27.88,17.42-41.82,3.48-7.84,10.45-13.07,7.84-22.65-.87-3.48,7.84-8.71,13.07-7.84,6.1,1.74,5.22,5.22,5.22,11.32-2.61,13.94-11.32,26.14-15.68,39.2-6.1,15.68-11.32,31.36-20,45.3-7.84,12.2-7.84,28.75-20,38.33-5.22,18.3-17.42,32.24-27.88,47a135.83,135.83,0,0,1-28.75,30.49c-7,5.22-15.68,7.84-23.52,11.32-2.61,1.74-6.1,1.74-9.58.87-2.61-.87-5.23-2.62-7.84-1.74-13.94,8.71-26.13-.87-39.2-4.36-12.2-2.62-23.52-7.84-31.36-19.16-9.58-13.94-14.81-29.62-17.42-46.17-3.48-24.4-.87-47.91,6.1-71.43,0-.87-.87-1.74-.87-3.48-6.1,3.48-11.32,7-13.94,14.81-1.75,7-9.58,9.58-13.94,14.81-8.71,11.32-18.29,22.66-30.49,31.36-2.62,11.32-19.16,9.58-21.78,21.78-20,10.45-39.2,22.65-63.59,25.26-14.81.87-27-6.1-35.72-14.81-9.58-10.45-19.16-20.91-20-36.59S895.48,452.74,903.32,438.8Zm1.74,35.71a2.7,2.7,0,0,1,1.75.87c0-.87,0-.87.87-.87a2.71,2.71,0,0,0-1.75-.87C905.06,473.64,905.06,473.64,905.06,474.51Zm7-33.1c.87.87.87,1.74,1.74,1.74a.85.85,0,0,0,.87-.87c-.87,0-.87-.87-.87-1.74C912.9,441.41,912.9,441.41,912,441.41Zm0,45.3c.87,0,.87,0,1.74.87a.85.85,0,0,1,.87-.87c-.87-.87-.87-.87-1.74-.87A.85.85,0,0,0,912,486.71Zm4.36-11.32a11,11,0,0,0,5.22-.87c-2.61-1.74-3.48-3.48-5.22-3.48C914.64,471.9,914.64,473.64,916.39,475.39Zm4.35-48.79a.85.85,0,0,0,.87.87,3.06,3.06,0,0,0,.87-1.74.85.85,0,0,1-.87-.87A3,3,0,0,1,920.74,426.6Zm6.1,31.36q2.61,2.61,5.22,0C929.45,456.22,927.71,455.35,926.84,458Zm4.35-33.1a12,12,0,0,1-2.61,3.48c1.74.87,2.61,2.62,3.48,3.49,2.62-2.62,5.23-4.36,8.71-7-2.61,0-3.48-.87-5.22-.87-1.75-.87-1.75-3.48-4.36-2.62a3,3,0,0,0-1.74.87c0,.87,0,.87.87,1.74A.85.85,0,0,0,931.19,424.86Zm3.49-46.17c.87.87,1.74,2.62,3.48,3.48,1.74-1.74,3.48-2.61,4.35-4.35,0-3.48-2.61-4.36-3.48-6.1C936.42,373.46,933.81,374.34,934.68,378.69Zm8.71,56.63c-2.61-1.74-4.35-2.62-5.22.87C939.91,437.06,940.78,437.06,943.39,435.32Zm-.87,53.14c0,17.42-.87,18.3,17.42,18.3,7,1.74,15.68,0,21.78-3.49,11.32-6.09,21.78-13.93,31.36-21.77,21.78-20,40.94-42.69,59.24-66.21,6.1-7.84,13.07-14.81,17.42-23.52,6.1-9.58,13.07-18.29,18.29-27,4.36-6.09,8.71-12.19,9.58-20,0-1.74,0-5.22,1.74-6.1,10.46-5.22,6.1-16.55,9.58-24.39,2.62-7-13.07-26.14-20-23.52-7.84,3.48-17.42,3.48-25.26,7.84-28.75,15.68-53.14,35.71-75.79,60.11a252,252,0,0,0-34,46.17c-6.1,11.32-13.07,23.51-17.42,36.59C952.1,457.09,943.39,471,942.52,488.45ZM946,410.92c0,.87,0,1.75.87,1.75a.85.85,0,0,0,.87-.87c0-.87-.87-.87-.87-1.74A.85.85,0,0,0,946,410.92Zm7.84-5.22a.85.85,0,0,0,.87.87c.87,0,.87,0,1.74-.87l-.87-.87C954.72,404.83,954.72,405.69,953.85,405.69Zm17.42-24.39c-.87,0,0,.87.87.87,0-.87,0-.87.87-1.74a.85.85,0,0,1-.87-.87C971.27,380.43,971.27,380.43,971.27,381.3Zm6.1-57.49q2.61-2.61,0-5.22Q974.75,321.2,977.36,323.81Zm18.29-23.52a3,3,0,0,0,1.74.87l.87-.87a3,3,0,0,1-1.74-.87A.86.86,0,0,0,995.66,300.29Zm3.48,24.39c-1.74,1.74-1.74,2.62,0,5.23,1.75-.87,3.49-.87,7-1.74C1001.76,327.29,1001.76,324.68,999.14,324.68Zm10.46-41.81c0,.87.87,1.74.87,2.62.87-.87.87-.87.87-1.74a2.69,2.69,0,0,0-.87-1.74A.85.85,0,0,1,1009.6,282.86Zm14.81,23.52c-2.61-4.36.87-7.84-2.61-10.46h-5.23C1015.69,298.55,1015.69,298.55,1024.41,306.39Zm-6.1-13.07,2.61-2.62c1.74,0,2.61-.87.87-2.62,0,.87-.87,1.74-1.74,2.62C1018.31,290.7,1017.44,291.58,1018.31,293.32Zm6.1,19.16a.85.85,0,0,1-.87.87c0,.87.87,1.74.87,2.62l.87-.87A3.19,3.19,0,0,0,1024.41,312.49Zm7-3.48c0,.87.87,2.61.87,4.35,1.74-1.74,4.35-2.61,4.35-5.22C1034.86,307.25,1033.12,306.39,1031.38,309Zm.87-8.72a2.69,2.69,0,0,0,.87,1.74c0-.87,0-.87.87-.87a3.21,3.21,0,0,1-.87-2.62C1032.25,299.41,1032.25,299.41,1032.25,300.29Zm2.61-8.71v1.74h3.49l.87-.87a3.06,3.06,0,0,0-.87-1.74C1037.48,290.7,1035.73,290.7,1034.86,291.58Zm12.2-27c7,.87,7,.87,8.71-.87C1054,262,1051.41,262.83,1047.06,264.57Zm2.61,20.91a3,3,0,0,1-1.74.87.86.86,0,0,1,.87.87,3,3,0,0,0,1.74-.87A.85.85,0,0,0,1049.67,285.48Zm64.46,129.8c.87-.87.87-2.61.87-3.48-1.74-1.74-3.48-2.62-6.1,0C1111.52,412.67,1111.52,415.28,1114.13,415.28Zm0,67.08a4.1,4.1,0,0,0-.87-5.22C1113.26,478.87,1109.78,480.61,1114.13,482.35Zm.87,34a3.21,3.21,0,0,0-.87-2.62.85.85,0,0,1-.87.87c0,.87.87,1.74.87,2.61A.85.85,0,0,1,1115,516.33Zm1.74-17.42a.86.86,0,0,0-.87-.87,2.69,2.69,0,0,0-1.74.87l.87.87A3,3,0,0,0,1116.75,498.91Zm6.1.87-.87-.87a2.69,2.69,0,0,0-.87,1.74c0,.87,0,.87.87.87A3,3,0,0,0,1122.85,499.78Zm2.61,7h5.23c-.87-3.49.87-5.23-.87-7.84-1.75.87-3.49,2.61-5.23,3.48C1124.59,504.13,1125.46,505,1125.46,506.75Zm1.74-160.29q-2.61,2.61,0,5.22a13,13,0,0,0,5.23-.87C1129.82,349.07,1128.94,347.33,1127.2,346.46Zm1.74,117.6a.86.86,0,0,1-.87-.87,3,3,0,0,0-1.74.87c0,.87,0,.87.87.87A2.7,2.7,0,0,0,1128.94,464.06Zm1.75,66.2c-1.75-1.74-2.62-1.74-4.36.87C1127.2,530.26,1128.94,533.76,1130.69,530.26Zm-1.75-49.65a.86.86,0,0,0,.87.87c.87,0,.87,0,1.74-.87a.85.85,0,0,1-.87-.87A2.71,2.71,0,0,1,1128.94,480.61Zm2.62,34v-1.75c-.87,0-.87,0-1.74.87.87.87.87.87.87,1.74A.85.85,0,0,0,1131.56,514.59Zm6.1-180.33c1.75,1.74,2.62.87,5.23-.87C1140.27,331.65,1138.52,330.78,1137.65,334.26Zm0,145.49c2.62-.87,5.23.87,7-.87,0-2.62-2.61-3.48-3.48-5.22-.87.87-2.62.87-3.49.87Zm7,61.85c-2.61-.87-3.48-3.49-6.1-3.49-.87.87-.87,2.62.87,5.23C1140.27,542.46,1142,542.46,1144.62,541.6Zm-1.74-77.53a3,3,0,0,1,.87,1.74.86.86,0,0,0,.87-.87c0-.87,0-1.74-.87-1.74A.85.85,0,0,0,1142.88,464.06Zm5.22-152.45c1.75,1.74,3.49,1.74,6.1,0C1151.59,309.87,1149.85,309,1148.11,311.61Zm2.62,212.56a3,3,0,0,0-1.74-.87l-.87.87a3,3,0,0,1,1.75.87A.85.85,0,0,0,1150.72,524.17Zm-.87-81c1.74-1.74,1.74-3.48-.87-4.36C1149.85,439.67,1146.36,442.28,1149.85,443.16Zm0-102.8a2.7,2.7,0,0,0-.87,1.74c0,.87,0,.87.87,1.74a3.19,3.19,0,0,1,.87-2.61C1149.85,341.23,1149.85,341.23,1149.85,340.36Zm7.84-49.65q3.92-2.61,0-5.22Q1155.07,288.09,1157.69,290.7Zm7.84,4.36c0,.87,0,.87.87.87a3,3,0,0,0,.87-1.74l-.87-.87C1165.53,294.19,1165.53,294.19,1165.53,295.06Zm5.23-17.42a3.06,3.06,0,0,0,.87,1.74H1176a3,3,0,0,0-.87-1.74c-.87-.87-1.74-.87-3.48-.87Zm0,14.81a.86.86,0,0,1,.87.87c.87-.87.87-.87.87-1.74a.86.86,0,0,0-.87-.87C1171.63,291.58,1170.76,291.58,1170.76,292.45Zm5.23,57.49c-.87,0-.87,0-1.75-.87l-.87.87,1.74,1.74C1175.11,350.82,1176,350.82,1176,349.94Zm5.22-82.76c2.61,1.74,4.36,1.74,6.1,0C1185.57,265.44,1183.82,265.44,1181.21,267.18Zm1.74-4.35c0-.87.87-1.75,1.74-2.62,1.75-.87,2.62-.87.87-2.62,0,.87-.87,1.74-1.75,2.62C1182.08,260.22,1181.21,260.22,1183,262.83Zm4.36,60.1a2.7,2.7,0,0,0-1.74-.87c-.87,0-.87,0-.87.87a2.7,2.7,0,0,1,1.75.87C1186.44,322.93,1186.44,322.93,1187.31,322.93Zm2.61-61.85c0,.87.87.87.87,1.75l1.74-1.75-.87-.87C1190.79,261.08,1190.79,261.08,1189.92,261.08Z" transform="translate(-45.75 -19.78)"/></svg>